<?xml version="1.0" encoding="UTF-8" standalone="no"?>
<!-- Created with Inkscape (http://www.inkscape.org/) -->

<svg
   width="433.54858"
   height="108.06779"
   viewBox="0 0 114.70972 28.592938"
   version="1.1"
   id="svg5"
   inkscape:version="1.2.2 (b0a8486541, 2022-12-01)"
   sodipodi:docname="pumpsy-logo.svg"
   inkscape:export-filename="Pumpsy_Logo_Square_512.jpg"
   inkscape:export-xdpi="96"
   inkscape:export-ydpi="96"
   xmlns:inkscape="http://www.inkscape.org/namespaces/inkscape"
   xmlns:sodipodi="http://sodipodi.sourceforge.net/DTD/sodipodi-0.dtd"
   xmlns="http://www.w3.org/2000/svg"
   xmlns:svg="http://www.w3.org/2000/svg">
  <sodipodi:namedview
     id="namedview7"
     pagecolor="#ffffff"
     bordercolor="#000000"
     borderopacity="0.25"
     inkscape:showpageshadow="2"
     inkscape:pageopacity="0.0"
     inkscape:pagecheckerboard="0"
     inkscape:deskcolor="#d1d1d1"
     inkscape:document-units="mm"
     showgrid="false"
     inkscape:zoom="0.63241397"
     inkscape:cx="-199.23659"
     inkscape:cy="263.27692"
     inkscape:window-width="1854"
     inkscape:window-height="1131"
     inkscape:window-x="66"
     inkscape:window-y="32"
     inkscape:window-maximized="1"
     inkscape:current-layer="layer1" />
  <defs
     id="defs2" />
  <g
     inkscape:label="Layer 1"
     inkscape:groupmode="layer"
     id="layer1"
     transform="translate(-10.37847,-53.436862)">
    <g
       aria-label="Pumpsy"
       transform="scale(1.0362188,0.96504715)"
       id="text63"
       style="font-size:31.846px;stroke-width:2.65384">
      <path
         d="m 15.813488,78.976045 q -1.43307,0 -2.324758,-0.923534 -0.891688,-0.95538 -1.369378,-2.515834 -0.47769,-1.5923 -0.63692,-3.471215 -0.15923,-1.878914 -0.15923,-3.725982 0,-2.165528 0.573228,-4.235518 0.605074,-2.06999 1.815222,-3.725982 1.241994,-1.687838 3.120908,-2.675064 1.878914,-0.987226 4.45844,-0.987226 2.611372,0 4.713208,1.082764 2.133682,1.082764 3.407522,3.089062 1.27384,2.006298 1.27384,4.7769 0,2.483988 -0.764304,4.267364 -0.764304,1.783376 -2.06999,2.929832 -1.27384,1.114611 -2.86614,1.655993 -1.560454,0.541382 -3.1846,0.509536 -1.624146,-0.06369 -3.02537,-0.63692 0.15923,0.764304 0.15923,1.560454 0.03185,0.79615 -0.254768,1.496762 -0.254768,0.668766 -0.95538,1.11461 -0.668766,0.413998 -1.91076,0.413998 z m 5.795972,-8.916881 q 1.146456,0 1.974452,-0.827996 0.859842,-0.859842 0.859842,-1.974452 0,-1.146456 -0.859842,-1.974452 -0.827996,-0.859842 -1.974452,-0.859842 -1.146456,0 -2.006298,0.859842 -0.827996,0.827996 -0.827996,1.974452 0,1.11461 0.827996,1.974452 0.859842,0.827996 2.006298,0.827996 z"
         style="font-family:'Cherry Bomb One';-inkscape-font-specification:'Cherry Bomb One'"
         id="path563" />
      <path
         d="m 39.02923,78.944199 q -2.356604,0 -4.108134,-1.146456 -1.719684,-1.178302 -2.675064,-3.248292 -0.923534,-2.101837 -0.923534,-4.840593 0,-2.675064 0.827996,-4.203672 0.859842,-1.528608 2.420296,-1.528608 1.11461,0 1.687838,0.413998 0.605074,0.413998 0.79615,1.050918 0.222922,0.605074 0.222922,1.305686 0,0.891688 -0.127384,1.815222 -0.09554,0.923534 -0.09554,1.974452 0,1.496762 0.605074,2.197374 0.63692,0.668766 1.369378,0.668766 0.79615,0 1.369378,-0.668766 0.605074,-0.700612 0.605074,-2.197374 0,-1.050918 -0.09554,-1.878914 -0.09554,-0.827996 -0.09554,-1.878914 0,-1.11461 0.541382,-1.942606 0.541382,-0.859842 2.165528,-0.859842 1.560454,0 2.38845,1.528608 0.827996,1.528608 0.827996,4.203672 0,2.738756 -0.859842,4.840593 -0.859842,2.06999 -2.579526,3.248292 -1.687838,1.146456 -4.267364,1.146456 z"
         style="font-family:'Cherry Bomb One';-inkscape-font-specification:'Cherry Bomb One'"
         id="path565" />
      <path
         d="m 58.837454,78.944199 q -1.528608,0 -2.038144,-1.050918 -0.509536,-1.050918 -0.509536,-2.961678 0,-1.592301 -0.09554,-2.643219 -0.09554,-1.050918 -0.891688,-1.050918 -0.668766,0 -0.95538,0.47769 -0.254768,0.47769 -0.286614,1.305686 -0.03185,0.827997 -0.03185,1.910761 0,1.11461 -0.15923,2.038144 -0.127384,0.891688 -0.668766,1.43307 -0.509536,0.509536 -1.655992,0.509536 -1.11461,0 -1.815222,-0.79615 -0.668766,-0.79615 -1.019072,-2.101836 -0.350306,-1.305686 -0.47769,-2.834295 -0.127384,-1.528608 -0.127384,-2.993524 0,-2.675064 0.47769,-4.426594 0.47769,-1.783376 2.038144,-2.22922 0.95538,-0.286614 1.815222,-0.03185 0.859842,0.254768 1.146456,0.95538 0.31846,-0.15923 0.764304,-0.31846 0.445844,-0.191076 1.401224,-0.191076 0.95538,0 1.878914,0.47769 0.923534,0.47769 1.337532,1.401224 0.764304,-0.891688 1.624146,-1.401224 0.859842,-0.509536 2.356605,-0.47769 2.006298,0.03185 3.439368,1.241994 1.43307,1.178302 2.197374,3.1846 0.79615,1.974452 0.79615,4.394748 0,1.560455 -0.286614,2.993525 -0.254768,1.401224 -0.987226,2.292912 -0.700612,0.891688 -2.006298,0.891688 -1.146456,0 -1.687838,-0.541382 -0.509536,-0.541382 -0.668766,-1.43307 -0.127384,-0.923534 -0.127384,-2.038144 0,-1.082764 -0.03185,-1.910761 -0.03185,-0.827996 -0.286614,-1.305686 -0.254768,-0.47769 -0.95538,-0.47769 -0.509536,0 -0.700613,0.47769 -0.191076,0.47769 -0.222922,1.305686 0,0.827997 -0.03185,1.910761 -0.03185,1.91076 -0.573228,2.961678 -0.509536,1.050918 -1.974452,1.050918 z"
         style="font-family:'Cherry Bomb One';-inkscape-font-specification:'Cherry Bomb One'"
         id="path567" />
      <path
         d="m 73.582152,83.498177 q -1.241994,0 -1.942606,-0.987226 -0.668766,-0.95538 -0.95538,-2.515834 -0.254768,-1.560454 -0.31846,-3.34383 -0.03185,-1.783376 -0.03185,-3.375677 0,-1.401224 0.06369,-2.993524 0.09554,-1.624146 0.382152,-3.057216 0.31846,-1.464916 1.050918,-2.38845 0.732458,-0.923534 2.006298,-0.923534 0.987226,0 1.528608,0.382152 0.541382,0.382152 0.827996,0.891688 0.732458,-0.541382 1.815222,-0.859842 1.082764,-0.350306 2.324758,-0.350306 2.06999,0 3.757828,1.019072 1.719685,1.019072 2.738757,2.738756 1.019072,1.687838 1.019072,3.757828 0,2.06999 -1.019072,3.789675 -1.019072,1.719684 -2.738757,2.738756 -1.687838,1.019072 -3.757828,1.019072 -1.27384,0 -2.356604,-0.31846 -1.082764,-0.350306 -1.815222,-0.923534 0,1.5923 -0.127384,2.897986 -0.09554,1.305686 -0.63692,2.038144 -0.541382,0.764304 -1.815222,0.764304 z M 80.174274,73.7533 q 0.827996,0 1.43307,-0.605074 0.63692,-0.63692 0.63692,-1.464916 0,-0.827996 -0.63692,-1.43307 -0.605074,-0.63692 -1.43307,-0.63692 -0.827996,0 -1.464916,0.63692 -0.605074,0.605074 -0.605074,1.43307 0,0.827996 0.605074,1.464916 0.63692,0.605074 1.464916,0.605074 z"
         style="font-family:'Cherry Bomb One';-inkscape-font-specification:'Cherry Bomb One'"
         id="path569" />
      <path
         d="m 94.918973,78.944199 q -2.802448,0 -4.458441,-0.923534 -1.655992,-0.923534 -1.655992,-2.38845 0,-1.019072 0.668766,-1.496762 0.700612,-0.509537 1.655992,-0.509537 0.764305,0 1.114611,0.254769 0.382152,0.254768 0.668766,0.509536 0.286614,0.254768 0.700612,0.254768 0.668766,0 0.668766,-0.47769 0,-0.636921 -0.764304,-0.923535 -0.732458,-0.286614 -1.847068,-0.79615 -1.528609,-0.732458 -2.197375,-1.687838 -0.668766,-0.987226 -0.668766,-2.006298 0,-1.210148 0.859842,-2.292912 0.859842,-1.082764 2.420297,-1.783376 1.5923,-0.700612 3.789674,-0.700612 1.847068,0 3.311984,0.509536 1.464913,0.509536 2.324753,1.401224 0.85985,0.859842 0.85985,1.91076 0,0.987226 -0.63692,1.496762 -0.63692,0.509536 -1.656,0.509536 -0.573223,0 -0.923529,-0.15923 -0.31846,-0.191076 -0.605074,-0.350306 -0.254768,-0.15923 -0.732458,-0.15923 -0.254768,0 -0.445844,0.191076 -0.191076,0.15923 -0.191076,0.413998 0,0.191076 0.15923,0.382152 0.15923,0.191076 0.541382,0.31846 0.987226,0.31846 1.91076,0.827996 0.955379,0.47769 1.560449,1.27384 0.63692,0.764304 0.63692,1.974453 0,2.06999 -1.9426,3.248292 -1.942607,1.178302 -5.127207,1.178302 z"
         style="font-family:'Cherry Bomb One';-inkscape-font-specification:'Cherry Bomb One'"
         id="path571" />
      <path
         d="m 108.64457,83.657407 q -1.05091,0 -1.97445,-0.286614 -0.89169,-0.254768 -1.46491,-0.859842 -0.57323,-0.573228 -0.57323,-1.496762 0,-1.11461 1.01907,-1.687838 1.01907,-0.573228 2.29291,-0.509536 1.40123,0.03185 2.16553,-0.127384 0.79615,-0.191076 1.21015,-0.700612 -2.92983,0 -4.68136,-0.859842 -1.75153,-0.859842 -2.54768,-2.675064 -0.76431,-1.815223 -0.76431,-4.713209 0,-1.560454 0.31846,-2.834294 0.31846,-1.305686 1.01907,-2.06999 0.73246,-0.79615 1.91076,-0.79615 1.5923,0 2.26107,0.923534 0.66877,0.891688 0.66877,2.101836 0,1.082764 -0.0318,2.133682 -0.0319,1.019072 0.0637,1.815222 0.0955,0.79615 0.50954,1.27384 0.414,0.47769 1.30568,0.47769 0.89169,0 1.30569,-0.47769 0.414,-0.47769 0.50954,-1.27384 0.0955,-0.79615 0.0637,-1.783376 -0.0319,-1.019072 -0.0319,-2.101836 0,-1.337532 0.66877,-2.197374 0.70061,-0.891688 2.26106,-0.891688 1.21015,0 1.91076,0.79615 0.73246,0.764304 1.05092,2.06999 0.31846,1.27384 0.31846,2.834294 0,2.611372 -0.57323,5.127207 -0.54138,2.483988 -1.81522,4.45844 -1.24199,1.974452 -3.31198,3.152754 -2.03815,1.178302 -5.06352,1.178302 z"
         style="font-family:'Cherry Bomb One';-inkscape-font-specification:'Cherry Bomb One'"
         id="path573" />
    </g>
  </g>
</svg>
